{"title":"Doctor Who 2x13 Doomsday (David Tennant and Billie Piper video c","uid":6779389,"size":2006892544,"categoryP":"video","categoryS":"other","magnet":"?xt=urn:btih:1a613801ae4162d5e07b72f40d9944522596a6a0&amp;dn=Doctor+Who+2x13+Doomsday+%28David+Tennant+and+Billie+Piper+video+c&amp;tr=udp%3A%2F%2Ftracker.openbittorrent.com%3A80&amp;tr=udp%3A%2F%2Fopen.demonii.com%3A1337&amp;tr=udp%3A%2F%2Ftracker.coppersurfer.tk%3A6969&amp;tr=udp%3A%2F%2Fexodus.desync.com%3A6969","seeders":0,"leechers":1,"uploader":null,"files":2,"time":1319843663,"description":"K:\\E2786\\VIDEO_TS\\VTS_04_1.VOB\n   General\n      Complete name : K:\\E2786\\VIDEO_TS\\VTS_04_1.VOB\n      Format : MPEG-PS\n      File size : 1 024 MiB\n      Duration : 24mn 40s\n      Overall bit rate : 5 802 Kbps\n   Video #224\n      ID : 224 (0xE0)\n      Format : MPEG Video\n      Format version : Version 2\n      Format profile : Main@Main\n      Format settings, Matrix : Default\n      Duration : 24mn 40s\n      Bit rate mode : Variable\n      Bit rate : 5 380 Kbps\n      Width : 720 pixels\n      Height : 480 pixels\n      Display aspect ratio : 16:9\n      Frame rate : 29.970 fps\n      Standard : NTSC\n      Colorimetry : 4:2:0\n      Bits/(Pixel*Frame) : 0.519\n      Stream size : 949 MiB (93%)\n   Audio #128\n      ID : 128 (0x80)\n      Format : AC-3\n      Format/Info : Audio Coding 3\n      Duration : 24mn 39s\n      Bit rate mode : Constant\n      Bit rate : 192 Kbps\n      Channel(s) : 2 channels\n      Channel positions : L R\n      Sampling rate : 48.0 KHz\n      Video delay : -50ms\n      Stream size : 33.9 MiB (3%)\n\n\nK:\\E2786\\VIDEO_TS\\VTS_04_2.VOB\n   General\n      Complete name : K:\\E2786\\VIDEO_TS\\VTS_04_2.VOB\n      Format : MPEG-PS\n      File size : 890 MiB\n      Duration : 21mn 26s\n      Overall bit rate : 5 803 Kbps\n   Video #224\n      ID : 224 (0xE0)\n      Format : MPEG Video\n      Format version : Version 2\n      Format profile : Main@Main\n      Format settings, Matrix : Default\n      Duration : 21mn 26s\n      Bit rate mode : Variable\n      Bit rate : 5 381 Kbps\n      Nominal bit rate : 9 800 Kbps\n      Width : 720 pixels\n      Height : 480 pixels\n      Display aspect ratio : 16:9\n      Frame rate : 29.970 fps\n      Standard : NTSC\n      Colorimetry : 4:2:0\n      Scan type : Interlaced\n      Scan order : Top Field First\n      Bits/(Pixel*Frame) : 0.520\n      Stream size : 825 MiB (93%)\n   Audio #128\n      ID : 128 (0x80)\n      Format : AC-3\n      Format/Info : Audio Coding 3\n      Duration : 21mn 26s\n      Bit rate mode : Constant\n      Bit rate : 192 Kbps\n      Channel(s) : 2 channels\n      Channel positions : L R\n      Sampling rate : 48.0 KHz\n      Video delay : -243ms\n      Stream size : 29.5 MiB (3%)","torrent":{"xt":"urn:btih:1a613801ae4162d5e07b72f40d9944522596a6a0","amp;dn":"Doctor+Who+2x13+Doomsday+%28David+Tennant+and+Billie+Piper+video+c","amp;tr":["udp%3A%2F%2Ftracker.openbittorrent.com%3A80","udp%3A%2F%2Fopen.demonii.com%3A1337","udp%3A%2F%2Ftracker.coppersurfer.tk%3A6969","udp%3A%2F%2Fexodus.desync.com%3A6969"],"infoHash":"1a613801ae4162d5e07b72f40d9944522596a6a0","infoHashBuffer":{"type":"Buffer","data":[26,97,56,1,174,65,98,213,224,123,114,244,13,153,68,82,37,150,166,160]},"announce":[],"urlList":[]}}